<svg width="111" height="42" viewBox="0 0 111 42" fill="none" xmlns="http://www.w3.org/2000/svg">
<path d="M19.1598 19.9011C19.6831 17.3956 18.7383 15.5997 17.0521 14.4266C15.5113 13.3983 13.5634 13.2535 11.4993 14.2673L2.92302 18.1197C0.771675 19.0901 -0.158635 21.5956 0.771675 23.6957C1.74559 25.8392 4.21673 26.7661 6.36807 25.8392L7.50188 25.3178L5.6558 35.311C5.1325 38.3235 7.09487 40.7856 9.76951 41.3069C12.604 41.8283 15.3659 39.9745 15.8311 37.1503L19.1598 19.9011Z" fill="url(#paint0_linear_704_348)"/>
<path d="M97.175 13.688C92.4507 13.0073 87.6829 15.759 85.8659 19.6405L86.1711 17.9459C86.9416 14.5135 85.5025 13.6011 83.0459 13.6011H79.8625C76.839 13.6011 76.1558 15.2376 75.7924 17.1349L72.0857 37.6138C71.7804 39.0042 71.9839 41.4083 74.7022 41.4083H79.1211C81.7376 41.4083 82.2464 39.3662 82.6098 37.411L84.3977 27.5771C84.8193 25.3323 85.1682 24.246 85.9386 23.4205C87.116 22.0881 89.4854 21.4798 91.128 22.8122C92.1019 23.6233 92.4653 25.0136 92.2036 26.9688L90.4157 37.6138C90.0232 39.9745 91.0262 41.4083 92.9886 41.4083H97.4075C99.9223 41.4083 100.431 39.4676 100.794 37.411L103.382 24.0722C104.588 19.2639 102.888 14.5135 97.175 13.688Z" fill="url(#paint1_linear_704_348)"/>
<path d="M68.844 10.9362C71.6538 10.9362 73.9316 8.68615 73.9316 5.9106C73.9316 3.13504 71.6538 0.88501 68.844 0.88501C66.0342 0.88501 63.7563 3.13504 63.7563 5.9106C63.7563 8.68615 66.0342 10.9362 68.844 10.9362Z" fill="url(#paint2_linear_704_348)"/>
<path d="M69.164 37.3821C68.8006 39.5255 68.1901 41.3794 65.6753 41.3794H61.2127C59.0614 41.3794 58.2765 39.7862 58.698 37.6862L62.3611 17.1059C62.7245 14.9045 63.6984 13.5721 66.4312 13.5721H69.8181C72.6963 13.5721 73.4085 14.9624 72.798 17.917L69.164 37.3821Z" fill="url(#paint3_linear_704_348)"/>
<path d="M20.061 13.5721C21.1948 14.9045 22.5322 16.5411 21.849 20.5384L20.1046 29.9233L20.4099 37.4545C20.468 40.1773 21.8054 41.3504 24.0585 41.3504H29.8147C31.6027 41.3504 32.3876 39.96 33.0999 38.2366L37.4607 27.5337L37.9259 37.7731C37.984 40.018 39.1033 41.4083 41.211 41.4083H47.7377C49.5838 41.4083 50.3542 40.2787 51.1828 38.2945L59.5556 17.8156C60.4714 15.7156 59.919 13.6155 57.6513 13.6155H53.4795C51.9387 13.6155 50.863 14.1369 50.2379 15.6142L44.5834 29.3151L44.0601 17.077C43.9584 14.47 42.7228 13.601 41.2256 13.601H36.9665C35.2658 13.601 34.2919 14.2673 33.7831 15.5418L28.1286 29.373L27.6053 16.7728C27.5471 14.4121 26.7331 13.601 24.8289 13.601H20.061V13.5721Z" fill="url(#paint4_linear_704_348)"/>
<defs>
<linearGradient id="paint0_linear_704_348" x1="9.85367" y1="45.2249" x2="9.85367" y2="12.9254" gradientUnits="userSpaceOnUse">
<stop stop-color="#0167CA"/>
<stop offset="1" stop-color="#38A8FA"/>
</linearGradient>
<linearGradient id="paint1_linear_704_348" x1="87.8784" y1="42.1171" x2="87.8784" y2="12.883" gradientUnits="userSpaceOnUse">
<stop stop-color="#C8C7C7"/>
<stop offset="0.076" stop-color="#D6D5D5"/>
<stop offset="0.216" stop-color="#E8E8E8"/>
<stop offset="0.38" stop-color="#F5F5F5"/>
<stop offset="0.59" stop-color="#FDFDFD"/>
<stop offset="1" stop-color="white"/>
</linearGradient>
<linearGradient id="paint2_linear_704_348" x1="68.8456" y1="13.4945" x2="68.8456" y2="-0.860042" gradientUnits="userSpaceOnUse">
<stop stop-color="#0167CA"/>
<stop offset="1" stop-color="#38A8FA"/>
</linearGradient>
<linearGradient id="paint3_linear_704_348" x1="65.7883" y1="42.1681" x2="65.7883" y2="12.9447" gradientUnits="userSpaceOnUse">
<stop stop-color="#C8C7C7"/>
<stop offset="0.076" stop-color="#D6D5D5"/>
<stop offset="0.216" stop-color="#E8E8E8"/>
<stop offset="0.38" stop-color="#F5F5F5"/>
<stop offset="0.59" stop-color="#FDFDFD"/>
<stop offset="1" stop-color="white"/>
</linearGradient>
<linearGradient id="paint4_linear_704_348" x1="40.0402" y1="42.1155" x2="40.0402" y2="12.9448" gradientUnits="userSpaceOnUse">
<stop stop-color="#C8C7C7"/>
<stop offset="0.076" stop-color="#D6D5D5"/>
<stop offset="0.216" stop-color="#E8E8E8"/>
<stop offset="0.38" stop-color="#F5F5F5"/>
<stop offset="0.59" stop-color="#FDFDFD"/>
<stop offset="1" stop-color="white"/>
</linearGradient>
</defs>
</svg>
