<svg width="230" height="230" viewBox="0 0 230 230" fill="none" xmlns="http://www.w3.org/2000/svg">
<rect width="230" height="230" rx="50" fill="#222933"/>
<path d="M84.1197 93.5084C85.5612 86.5772 82.9585 81.6091 78.3137 78.3638C74.0694 75.5192 68.7038 75.1186 63.018 77.9231L39.3936 88.5804C33.4675 91.2648 30.9048 98.196 33.4675 104.005C36.1503 109.935 42.9573 112.499 48.8834 109.935L52.0066 108.493L46.9214 136.138C45.4799 144.471 50.8854 151.282 58.253 152.724C66.0611 154.167 73.669 149.038 74.9503 141.226L84.1197 93.5084Z" fill="url(#paint0_linear_704_332)"/>
<path d="M86.6023 76C89.7255 79.686 93.4093 84.2133 91.5274 95.2712L86.7224 121.233L87.5633 142.067C87.7235 149.599 91.4073 152.845 97.6137 152.845H113.47C118.395 152.845 120.557 148.998 122.519 144.231L134.532 114.623L135.813 142.949C135.973 149.159 139.056 153.005 144.862 153.005H162.841C167.926 153.005 170.048 149.88 172.331 144.391L195.395 87.739C197.917 81.9296 196.396 76.1202 190.149 76.1202H178.657C174.413 76.1202 171.45 77.5625 169.728 81.6492L154.152 119.551L152.71 85.6957C152.43 78.484 149.027 76.0801 144.902 76.0801H133.17C128.486 76.0801 125.803 77.9231 124.401 81.4488L108.825 119.711L107.384 84.8544C107.224 78.3238 104.981 76.0801 99.7358 76.0801H86.6023V76Z" fill="url(#paint1_linear_704_332)"/>
<defs>
<linearGradient id="paint0_linear_704_332" x1="58.4849" y1="163.563" x2="58.4849" y2="74.2111" gradientUnits="userSpaceOnUse">
<stop stop-color="#0167CA"/>
<stop offset="1" stop-color="#38A8FA"/>
</linearGradient>
<linearGradient id="paint1_linear_704_332" x1="141.637" y1="154.961" x2="141.637" y2="74.2648" gradientUnits="userSpaceOnUse">
<stop stop-color="#C8C7C7"/>
<stop offset="0.076" stop-color="#D6D5D5"/>
<stop offset="0.216" stop-color="#E8E8E8"/>
<stop offset="0.38" stop-color="#F5F5F5"/>
<stop offset="0.59" stop-color="#FDFDFD"/>
<stop offset="1" stop-color="white"/>
</linearGradient>
</defs>
</svg>
