<svg width="75" height="75" viewBox="0 0 75 75" fill="none" xmlns="http://www.w3.org/2000/svg">
<g clip-path="url(#clip0_304_852)">
<path d="M56.9538 36.4676L29.4537 17.7176C29.07 17.4576 28.575 17.4288 28.165 17.6451C27.7562 17.8613 27.5 18.2863 27.5 18.7501V56.2501C27.5 56.7138 27.7563 57.1388 28.1663 57.3551C28.3488 57.4526 28.55 57.5001 28.75 57.5001C28.9963 57.5001 29.2425 57.4263 29.4537 57.2826L56.9538 38.5326C57.295 38.3001 57.5 37.9138 57.5 37.5001C57.5 37.0863 57.295 36.7001 56.9538 36.4676ZM30 53.8838V21.1163L54.0312 37.5001L30 53.8838Z" fill="white"/>
<path d="M37.5 0C16.8225 0 0 16.8225 0 37.5C0 58.1775 16.8225 75 37.5 75C58.1775 75 75 58.1775 75 37.5C75 16.8225 58.1775 0 37.5 0ZM37.5 72.5C18.2013 72.5 2.5 56.7988 2.5 37.5C2.5 18.2013 18.2013 2.5 37.5 2.5C56.7988 2.5 72.5 18.2013 72.5 37.5C72.5 56.7988 56.7988 72.5 37.5 72.5Z" fill="white"/>
</g>
<defs>
<clipPath id="clip0_304_852">
<rect width="75" height="75" fill="white"/>
</clipPath>
</defs>
</svg>
