<svg width="52" height="45" viewBox="0 0 52 45" fill="none" xmlns="http://www.w3.org/2000/svg">
<path d="M5.10204 0L6.24752 3.10942H9.95437L6.95547 5.03115L8.10094 8.14058L5.10204 6.21885L2.10314 8.14058L3.24862 5.03115L0.249712 3.10942H3.95656L5.10204 0Z" fill="#4C4C50"/>
<path d="M15.3061 0L16.4516 3.10942H20.1585L17.1596 5.03115L18.305 8.14058L15.3061 6.21885L12.3072 8.14058L13.4527 5.03115L10.4538 3.10942H14.1607L15.3061 0Z" fill="#4C4C50"/>
<path d="M25.5102 0L26.6557 3.10942H30.3626L27.3637 5.03115L28.5091 8.14058L25.5102 6.21885L22.5113 8.14058L23.6568 5.03115L20.6579 3.10942H24.3648L25.5102 0Z" fill="#4C4C50"/>
<path d="M35.7143 0L36.8598 3.10942H40.5667L37.5678 5.03115L38.7132 8.14058L35.7143 6.21885L32.7154 8.14058L33.8609 5.03115L30.862 3.10942H34.5689L35.7143 0Z" fill="#4C4C50"/>
<path d="M45.9183 0L47.0638 3.10942H50.7707L47.7717 5.03115L48.9172 8.14058L45.9183 6.21885L42.9194 8.14058L44.0649 5.03115L41.066 3.10942H44.7728L45.9183 0Z" fill="#4C4C50"/>
<path d="M15.3061 9L16.4516 12.1094H20.1585L17.1596 14.0312L18.305 17.1406L15.3061 15.2188L12.3072 17.1406L13.4527 14.0312L10.4538 12.1094H14.1607L15.3061 9Z" fill="#4C4C50"/>
<path d="M25.5102 9L26.6557 12.1094H30.3626L27.3637 14.0312L28.5091 17.1406L25.5102 15.2188L22.5113 17.1406L23.6568 14.0312L20.6579 12.1094H24.3648L25.5102 9Z" fill="#4C4C50"/>
<path d="M35.7143 9L36.8598 12.1094H40.5667L37.5678 14.0312L38.7132 17.1406L35.7143 15.2188L32.7154 17.1406L33.8609 14.0312L30.862 12.1094H34.5689L35.7143 9Z" fill="#4C4C50"/>
<path d="M45.9183 9L47.0638 12.1094H50.7707L47.7717 14.0312L48.9172 17.1406L45.9183 15.2188L42.9194 17.1406L44.0649 14.0312L41.066 12.1094H44.7728L45.9183 9Z" fill="#4C4C50"/>
<path d="M25.5102 18L26.6557 21.1094H30.3626L27.3637 23.0312L28.5091 26.1406L25.5102 24.2188L22.5113 26.1406L23.6568 23.0312L20.6579 21.1094H24.3648L25.5102 18Z" fill="#4C4C50"/>
<path d="M35.7143 18L36.8598 21.1094H40.5667L37.5678 23.0312L38.7132 26.1406L35.7143 24.2188L32.7154 26.1406L33.8609 23.0312L30.862 21.1094H34.5689L35.7143 18Z" fill="#4C4C50"/>
<path d="M45.9184 18L47.0639 21.1094H50.7708L47.7719 23.0312L48.9174 26.1406L45.9184 24.2188L42.9195 26.1406L44.065 23.0312L41.0661 21.1094H44.773L45.9184 18Z" fill="#4C4C50"/>
<path d="M35.7143 27L36.8598 30.1094H40.5667L37.5678 32.0312L38.7132 35.1406L35.7143 33.2188L32.7154 35.1406L33.8609 32.0312L30.862 30.1094H34.5689L35.7143 27Z" fill="#4C4C50"/>
<path d="M45.9184 27L47.0639 30.1094H50.7708L47.7719 32.0312L48.9174 35.1406L45.9184 33.2188L42.9195 35.1406L44.065 32.0312L41.0661 30.1094H44.773L45.9184 27Z" fill="#4C4C50"/>
<path d="M45.9183 36L47.0638 39.1094H50.7707L47.7717 41.0312L48.9172 44.1406L45.9183 42.2188L42.9194 44.1406L44.0649 41.0312L41.066 39.1094H44.7728L45.9183 36Z" fill="#4C4C50"/>
</svg>
