<svg xmlns="http://www.w3.org/2000/svg" width="142" height="25" viewBox="0 0 142 25" fill="none">
	<path d="M14.1723 0L17.3542 8.63729H27.651L19.3207 13.9754L22.5026 22.6127L14.1723 17.2746L5.84205 22.6127L9.02393 13.9754L0.693644 8.63729H10.9904L14.1723 0Z" fill="#FF9500" />
	<path d="M42.5171 0L45.6989 8.63729H55.9958L47.6655 13.9754L50.8474 22.6127L42.5171 17.2746L34.1868 22.6127L37.3687 13.9754L29.0384 8.63729H39.3352L42.5171 0Z" fill="#FF9500" />
	<path d="M70.8618 0L74.0437 8.63729H84.3405L76.0102 13.9754L79.1921 22.6127L70.8618 17.2746L62.5315 22.6127L65.7134 13.9754L57.3831 8.63729H67.6799L70.8618 0Z" fill="#FF9500" />
	<path d="M99.2063 0L102.388 8.63729H112.685L104.355 13.9754L107.537 22.6127L99.2063 17.2746L90.876 22.6127L94.0579 13.9754L85.7276 8.63729H96.0244L99.2063 0Z" fill="#FF9500" />
	<path d="M127.551 0L130.733 8.63729H141.03L132.699 13.9754L135.881 22.6127L127.551 17.2746L119.221 22.6127L122.403 13.9754L114.072 8.63729H124.369L127.551 0Z" fill="#FF9500" />
</svg>
